<svg width="1600" height="80" viewBox="0 0 1600 80" xmlns="http://www.w3.org/2000/svg">
  <title>all sports</title>
  <g fill="#222" fill-rule="evenodd">
    <path d="M54.408 53.817c-1.65-.367-3.345-.068-4.77.84-2.945 1.87-3.815 5.79-1.943 8.734.906 1.427 2.314 2.415 3.963 2.78 1.65.37 3.344.07 4.772-.836 1.427-.908 2.416-2.316 2.782-3.966.367-1.65.067-3.344-.84-4.77-.905-1.426-2.314-2.414-3.964-2.78m-.573 2.58c.96.215 1.78.79 2.306 1.62.528.83.703 1.816.49 2.776-.215.96-.788 1.78-1.62 2.31-.83.526-1.816.7-2.777.486-.96-.214-1.78-.79-2.306-1.618-.527-.83-.7-1.817-.49-2.777.216-.96.79-1.78 1.618-2.307.832-.53 1.82-.702 2.78-.49M40.096 19.12c.62 2.696 3.306 4.378 6 3.76 2.697-.62 4.378-3.305 3.758-6-.617-2.695-3.303-4.377-6-3.76-2.694.62-4.376 3.306-3.758 6M38.59 27.715c1.457-2.728 4.882-3.768 7.61-2.31l.302.162c2.73 1.457 3.77 4.88 2.312 7.608l-5.5 10.3c-1.456 2.727-4.88 3.767-7.61 2.31l-.3-.162c-2.728-1.457-3.77-4.88-2.313-7.61l5.5-10.298z"/>
    <path d="M15.57 47.267l12.98-.364 3.98-7.74c.67-1.3 2.263-1.812 3.562-1.143 1.3.667 1.81 2.262 1.142 3.56l-4.696 9.132c-.438.858-1.312 1.407-2.278 1.434l-14.542.408c-1.46.04-2.676-1.11-2.717-2.57-.04-1.46 1.112-2.677 2.57-2.717M37.658 42.533c1.2-.83 2.85-.528 3.678.674l5.443 7.884c.55.8.62 1.836.182 2.7L41.52 64.508c-.662 1.302-2.256 1.82-3.557 1.16-1.302-.66-1.822-2.253-1.16-3.555l4.73-9.312-4.55-6.588c-.83-1.202-.527-2.85.675-3.68M28.51 36.787c-1.057 1.008-2.73.968-3.74-.09-1.01-1.057-.967-2.73.09-3.74l7.936-7.565c.494-.468 1.147-.73 1.827-.73h29.73c1.462 0 2.647 1.185 2.647 2.645s-1.185 2.645-2.646 2.645H35.682l-7.173 6.835zM104.39 65.414c-.833 0-1.515-.683-1.515-1.515v-.76c0-.835.682-1.515 1.516-1.515h7.076c.834 0 1.516.68 1.516 1.516v.76c0 .83-.682 1.514-1.516 1.514h-7.075zM120.434 65.414c-.832 0-1.515-.683-1.515-1.515l-.002-.76c0-.835.683-1.515 1.516-1.515h7.075c.832 0 1.515.68 1.515 1.516v.76c0 .83-.683 1.514-1.516 1.514h-7.076zM150 63.565c0 .91-.74 1.65-1.648 1.65h-6.87c-.907 0-1.65-.74-1.65-1.65v-1.097c0-.908.743-1.65 1.65-1.65h6.87c.907 0 1.648.742 1.648 1.65v1.097zM118.257 34.96l-27.6-20.823c-.645-.487-.842-1.36-.47-2.078l3.425-6.586c.42-.81 1.417-1.12 2.225-.702.807.42 1.12 1.418.7 2.225l-2.78 5.347L120.24 32.33c.73.55.872 1.582.326 2.312-.326.427-.82.653-1.32.653-.345 0-.693-.108-.99-.334"/>
    <path d="M106.957 21.007c-1.262-.176-2.43.706-2.602 1.97-.174 1.263.897 2.058 2.16 2.23l12.157 1.93c.3.048.368.26.154.475l-7.43 7.34c-1.008.998-1.488 2.32-1.457 3.636-.007.217.002.44.05.666l1.805 8.718c.06.295-.027.74-.2.992l-4.876 6.996c-.878 1.276-.556 3.022.72 3.898.486.335 1.04.493 1.584.493.894 0 1.77-.423 2.314-1.214l5.867-8.434c.428-.627.59-1.414.433-2.158l-1.067-5.154c-.062-.3.05-.356.25-.127l4.627 5.288c.197.228.32.658.266.956l-1.25 7.497c-.265 1.53.756 2.978 2.28 3.243.164.027.325.042.485.042 1.34 0 2.522-.963 2.758-2.325l1.576-9.358c.144-.837-.093-1.685-.652-2.323l-5.984-6.838 1.313-1.3 4.225 1.548c.26.095.526.14.793.14.453 0 .9-.132 1.286-.39.615-.413.992-1.087 1.022-1.827 0 0 .342-8.812.34-8.857.077-1.35-.378-2.722-1.402-3.76-.757-.766-1.703-1.22-2.69-1.387-.044-.008-18.857-2.603-18.857-2.603M138.928 21.026c0 2.78-2.253 5.033-5.03 5.033-2.78 0-5.033-2.254-5.033-5.034s2.252-5.03 5.032-5.03c2.778 0 5.03 2.25 5.03 5.03M208.482 13.497c1.955 1.956 1.955 5.123 0 7.078-1.953 1.955-5.122 1.955-7.078 0-1.956-1.955-1.956-5.122 0-7.078 1.956-1.955 5.125-1.955 7.078 0M221.455 62.298l-3.9-11.084c-.083-.233-.197-.452-.34-.654l-6.945-9.764c-.845-1.192-2.498-1.47-3.69-.623-1.19.844-1.466 2.498-.62 3.69l6.728 9.458 3.777 10.735c.485 1.38 1.996 2.102 3.373 1.617 1.38-.486 2.103-1.995 1.617-3.374M192.92 64.43l10.85-20.18c.69-1.287.21-2.89-1.077-3.583-1.286-.69-2.89-.21-3.584 1.077l-10.85 20.18c-.69 1.286-.21 2.89 1.078 3.583 1.287.692 2.89.21 3.583-1.077"/>
    <path d="M209.97 28.96c-.116-3.092-2.738-5.528-5.827-5.412l-.346.013c-3.093.114-5.528 2.736-5.412 5.828l.43 11.666c.115 3.092 2.736 5.525 5.83 5.41l.345-.01c3.09-.115 5.526-2.737 5.412-5.826l-.432-11.668z"/>
    <path d="M222.653 33.24l-13.85-9.44c-.43-.29-.936-.45-1.455-.458l-6.577-.083c-.42-.006-.834.09-1.21.275l-14.322 7.11c-1.307.647-1.84 2.237-1.19 3.546.648 1.308 2.234 1.842 3.544 1.192l13.747-6.825 5.145.064 13.19 8.99c1.206.825 2.852.512 3.676-.694.822-1.206.512-2.85-.697-3.676M181.126 23.292c1.113-.475 1.963-1.38 2.46-2.614.692-1.728.598-3.868-.26-5.872-.853-2.007-2.337-3.554-4.065-4.25-1.233-.495-2.474-.505-3.585-.033-2.76 1.18-3.73 4.91-2.203 8.49.858 2.006 2.34 3.553 4.07 4.248 1.234.497 2.474.507 3.584.032m-5.22-5.32c-.914-2.14-.543-4.436.808-5.015.57-.243 1.165-.106 1.563.054 1.064.43 2.043 1.49 2.617 2.835.576 1.343.663 2.782.234 3.846-.157.4-.47.926-1.04 1.168-.57.246-1.165.106-1.563-.053-1.064-.427-2.043-1.486-2.62-2.832"/>
    <path d="M179.346 22.615l2.875 6.734c.288.67 1.065.984 1.737.697.672-.287.984-1.064.698-1.736l-2.875-6.733c-.287-.672-1.065-.985-1.736-.698-.672.286-.985 1.064-.698 1.735M219.166 42.32c-.63.987-.837 2.16-.584 3.304.253 1.145.938 2.12 1.927 2.75 2.04 1.298 4.755.694 6.054-1.345.628-.99.834-2.165.58-3.31-.254-1.142-.94-2.117-1.928-2.746-.987-.627-2.163-.834-3.305-.58-1.143.255-2.117.94-2.744 1.927m4.632.887c.393.25.663.635.764 1.09.1.454.018.92-.23 1.314-.516.81-1.594 1.048-2.405.534-.39-.25-.66-.64-.762-1.093-.1-.45-.02-.916.23-1.306.25-.395.638-.667 1.09-.768.455-.1.92-.02 1.313.23"/>
    <g>
      <path d="M283.362 27.428L265.896 9.963c-.426-.426-1.117-.43-1.545 0-.427.426-.428 1.12 0 1.547l16.105 16.103c.458-.11.928-.185 1.413-.185h1.494zM304.796 44.566c.164-.786-.096-1.564-.624-2.094-.306-.306-.7-.526-1.155-.624l-5-1.038s2.507-5.682 2.54-5.857c.154-.48.26-.98.26-1.506 0-1.364-.552-2.592-1.443-3.48-.89-.895-2.12-1.446-3.48-1.446h-14.027c-2.72 0-4.923 2.205-4.922 4.927 0 1.353.546 2.58 1.43 3.468.005.005.008.008.01.008.965.96 3.866 3.83 3.866 3.83h-5.457c-1.57-.002-2.845 1.274-2.845 2.846 0 .78.32 1.493.835 2.005.515.518 1.224.835 2.01.838l12.378-.003c1.152 0 2.194-.698 2.63-1.76.437-1.062.192-2.283-.616-3.093l-.014-.013-3.243-3.21h6.15l-1.418 3.178c-.284.635-.264 1.363.052 1.985.11.214.255.41.422.576.314.314.713.53 1.156.626l7.792 1.618c1.24.256 2.457-.542 2.714-1.782"/>
      <path d="M310.283 40.42c-1.954 1.954-5.123 1.954-7.078 0-1.957-1.96-1.957-5.127 0-7.082 1.955-1.955 5.122-1.953 7.078 0 1.956 1.957 1.957 5.123 0 7.082M291.986 66.012l-40.598-40.598c-.595-.595-1.56-.595-2.152 0l-.54.54c-.594.59-.595 1.557 0 2.153l41.712 41.712c.3.297.88.536 1.3.537h5.205c.84 0 1.524-.68 1.522-1.523l.002-.76c0-.84-.683-1.522-1.524-1.522h-3.627c-.422 0-1.002-.242-1.3-.54"/>
    </g>
    <g>
      <path d="M343.51 20.122c-.25-.988-1.253-1.586-2.24-1.336-.99.25-1.588 1.255-1.337 2.243l12.058 47.577c.213.837.964 1.393 1.79 1.393.15 0 .302-.018.454-.057.988-.25 1.586-1.254 1.336-2.242l-12.06-47.578zM373.59 33.05l-1.65-6.094c2.16-.806 4.202-1.27 6.512-1.345.55 2.033 1.1 4.064 1.652 6.095-2.31.076-4.352.54-6.513 1.345m-8.105-2.724l-1.848-6.825c2.094-1.22 4.187-2.39 6.415-3.353l1.85 6.824c-2.23.963-4.323 2.133-6.417 3.356m-4.75 9.497c-.552-2.03-1.102-4.063-1.653-6.094 2.202-.985 4.28-2.16 6.358-3.378l1.65 6.094c-2.078 1.217-4.155 2.393-6.356 3.377m-8.532-4.597c-.617-2.274-1.232-4.55-1.85-6.824 2.445-.07 4.613-.6 6.882-1.497l-1.628-6.006c2.218-.992 4.31-2.18 6.403-3.404.54 2.002 1.084 4.004 1.627 6.006-2.095 1.225-4.186 2.412-6.403 3.403l1.848 6.824c-2.268.896-4.436 1.425-6.88 1.496m22.774-22.445l1.627 6.007c-2.324.076-4.376.545-6.55 1.36l-1.627-6.006c2.174-.813 4.225-1.283 6.55-1.36m8.673 20.742l-5.9-21.768c-.212-.786-.585-1.628-1.99-1.713-11.05-.8-18.308 10.207-29.36 9.407-.872-.108-1.432.346-1.22 1.132 1.966 7.255 3.917 14.516 5.898 21.767.318 1.164 1.12 1.605 1.99 1.713 11.053.8 18.31-10.206 29.362-9.405.872.107 1.432-.347 1.22-1.133"/>
    </g>
    <g>
      <path d="M458.277 34.975l-7.97-1.08-2.66-7.09c-.538-1.432-2.134-2.156-3.567-1.618-1.432.537-2.157 2.134-1.62 3.567l3.244 8.638c.358.955 1.21 1.634 2.22 1.772l9.607 1.3c1.518.207 2.915-.855 3.12-2.372.205-1.514-.857-2.91-2.373-3.117M456.617 21.836c1.068-.84 2.613-.654 3.453.412l1.303 1.66c.878-3.212-.613-6.673-3.74-8.106-3.48-1.593-7.593-.063-9.186 3.416-1.594 3.48-.065 7.592 3.415 9.186 2.172.994 4.574.746 6.468-.412l-2.126-2.705c-.84-1.066-.654-2.612.413-3.45M426.46 36.924l-.883-.77c.27.282.566.54.882.77"/>
      <path d="M447.622 26.944l-.147-.34c-1.305-3.028-4.943-4.693-8.087-3.704l-11.866 3.74c-1.374.435-2.435 1.307-3.085 2.404-.838 1.412-.994 3.2-.26 4.903l.145.338c.303.703.736 1.33 1.255 1.87l.882.77 5.148 4.492-4.695 3.313c-1.27.898-1.537 2.63-.592 3.868.945 1.235 2.742 1.508 4.016.61l7.514-5.308c.693-.488 1.12-1.254 1.157-2.084.04-.83-.31-1.637-.95-2.2l-2.87-2.503 9.088-2.865c3.143-.99 4.648-4.277 3.347-7.304"/>
      <path d="M428.804 50.592l4.45-3.64-4.09-3.813-3.868 3.163c-1.185.97-1.36 2.715-.39 3.9.968 1.182 2.714 1.357 3.898.39"/>
      <path d="M423.488 41.054c-6.94 0-12.585 5.646-12.585 12.585 0 6.938 5.646 12.584 12.585 12.584 6.94 0 12.585-5.646 12.585-12.585 0-6.94-5.646-12.586-12.585-12.586m0 5c4.19 0 7.585 3.396 7.585 7.585 0 4.188-3.396 7.584-7.585 7.584-4.19 0-7.585-3.396-7.585-7.585 0-4.19 3.396-7.586 7.585-7.586M456.51 41.054c-6.938 0-12.584 5.646-12.584 12.585 0 6.938 5.646 12.584 12.585 12.584 6.94 0 12.586-5.646 12.586-12.585 0-6.94-5.646-12.586-12.585-12.586m0 5c4.19 0 7.586 3.396 7.586 7.585 0 4.188-3.396 7.584-7.585 7.584-4.188 0-7.584-3.396-7.584-7.585 0-4.19 3.396-7.586 7.585-7.586"/>
    </g>
    <g>
      <path d="M534.35 18.95c0 2.78-2.252 5.033-5.033 5.033-2.782 0-5.036-2.252-5.036-5.034 0-2.78 2.255-5.036 5.037-5.036 2.78 0 5.034 2.255 5.034 5.035M512.825 36.827c-1.13-.937-2.806-.78-3.745.35-.936 1.13-.78 2.807.35 3.745l7.86 6.518v8.476c0 1.47 1.193 2.66 2.66 2.66 1.47 0 2.66-1.19 2.66-2.66V46.19c0-.792-.35-1.543-.96-2.047l-8.825-7.316zM537.29 32.487h-7.724l-3.446-6.402c-.698-1.294-2.31-1.778-3.604-1.08-1.294.696-1.775 2.31-1.08 3.602l4.2 7.802c.465.86 1.362 1.398 2.343 1.398h9.31c1.47 0 2.66-1.19 2.66-2.66 0-1.47-1.19-2.66-2.66-2.66"/>
      <path d="M524.69 31.758c2.2-2.2 2.2-5.798.004-8l-.25-.245c-2.2-2.2-5.798-2.2-7.997 0l-8.3 8.303c-2.2 2.2-2.2 5.798-.003 7.998l.246.247c2.203 2.2 5.797 2.2 7.997 0l8.303-8.302zM491.5 53.656c0 6.688 5.44 12.13 12.13 12.13 6.685 0 12.125-5.442 12.125-12.13 0-6.688-5.44-12.13-12.126-12.13-6.69 0-12.13 5.442-12.13 12.13m12.13-9.47c5.22 0 9.466 4.248 9.466 9.47 0 5.22-4.246 9.47-9.467 9.47-5.222 0-9.47-4.25-9.47-9.47 0-5.222 4.248-9.47 9.47-9.47M524.242 53.656c0 6.688 5.44 12.13 12.13 12.13 6.687 0 12.128-5.442 12.128-12.13 0-6.688-5.44-12.13-12.128-12.13-6.69 0-12.13 5.442-12.13 12.13m12.13-9.47c5.22 0 9.468 4.248 9.468 9.47 0 5.22-4.25 9.47-9.47 9.47-5.22 0-9.467-4.25-9.467-9.47 0-5.222 4.248-9.47 9.468-9.47"/>
    </g>
    <g>
      <path d="M595.683 47.886h-2.904c-.354 0-.688.14-.936.39-.247.248-.386.585-.384.937l.02 3.434c.004.728.6 1.315 1.328 1.31.73-.002 1.314-.598 1.31-1.325l-.012-2.108h1.577c.73 0 1.32-.59 1.32-1.32 0-.727-.59-1.318-1.32-1.318M608.734 23.47c-.407 2.73 1.476 5.27 4.205 5.677 2.727.404 5.265-1.478 5.672-4.206.404-2.726-1.477-5.266-4.205-5.674-2.728-.404-5.27 1.477-5.673 4.205M589.914 30.563c-1.402-.403-2.862.406-3.267 1.805l-3.653 12.69-9.764 10.216c-1.005 1.053-.97 2.723.085 3.73 1.054 1.006 2.726.97 3.733-.085l10.21-10.685c.294-.31.51-.683.626-1.092l3.833-13.315c.405-1.4-.404-2.862-1.803-3.265"/>
      <path d="M614.21 56.467l-8.547-14.48c-.286-.483-.716-.862-1.23-1.083l-12.202-5.237c-1.34-.574-2.89.045-3.465 1.384-.574 1.34.047 2.89 1.384 3.466l11.407 4.896 8.107 13.737c.74 1.254 2.358 1.67 3.612.93 1.255-.74 1.672-2.358.933-3.613"/>
      <path d="M600.918 24.48c2.875-1.12 6.142.317 7.263 3.19l.124.322c1.12 2.875-.317 6.14-3.192 7.262l-10.85 4.226c-2.874 1.118-6.143-.318-7.26-3.192l-.127-.322c-1.118-2.875.317-6.143 3.192-7.262l10.85-4.224z"/>
      <path d="M602.98 29.08l8.243 17.057c.633 1.312 2.21 1.86 3.52 1.227 1.313-.634 1.864-2.21 1.23-3.523l-8.24-17.055c-.635-1.312-2.212-1.862-3.523-1.228-1.31.634-1.863 2.212-1.23 3.523M595.914 50.92c-4.475 0-7.847 2.12-7.847 4.935 0 2.812 3.372 4.934 7.847 4.934 4.473 0 7.848-2.123 7.848-4.935 0-2.814-3.375-4.936-7.848-4.936m5.21 4.935c0 .937-2.03 2.296-5.21 2.296-3.182 0-5.21-1.358-5.21-2.295 0-.936 2.028-2.298 5.21-2.298 3.18 0 5.21 1.362 5.21 2.298M626.18 57.2h-3.505l-4.87-8.58c-.358-.635-1.164-.856-1.798-.498-.634.36-.855 1.165-.497 1.798l4.13 7.28h-2.005c-.73 0-1.32.59-1.32 1.32 0 .73.59 1.32 1.32 1.32h8.546c.73 0 1.32-.59 1.32-1.32 0-.73-.59-1.32-1.32-1.32"/>
    </g>
    <g>
      <path d="M710.75 14.52c0 2.794-2.268 5.063-5.066 5.063-2.797 0-5.064-2.27-5.064-5.064 0-2.804 2.267-5.067 5.064-5.067 2.798 0 5.066 2.263 5.066 5.066M701.126 19.56c-.97-.972-2.25-1.46-3.53-1.46h-20.9c-1.283 0-2.322 1.042-2.322 2.327 0 1.282 1.04 2.322 2.323 2.322h14.197l-8.506 8.502c-.973.976-1.456 2.253-1.456 3.523 0 .744.173 1.48.51 2.158.27.55.247 1.283-.187 1.717l-13.837 13.835c-.543.54-.81 1.248-.81 1.96 0 .707.267 1.415.81 1.956 1.08 1.08 2.828 1.08 3.91 0l29.798-29.8c1.946-1.94 1.946-5.09 0-7.04"/>
      <path d="M703.204 44.64l-53.02 22.27c-.777.324-1.14 1.22-.815 1.996l.295.706c.324.776 1.22 1.142 1.996.815l54.478-22.88c.388-.165.83-.61.99-1l1.97-4.828c.32-.78-.052-1.67-.835-1.988l-.705-.29c-.78-.32-1.67.056-1.988.835l-1.375 3.363c-.16.392-.6.84-.99 1"/>
    </g>
    <g>
      <path d="M779.52 56.957c-.586-.14-.944-.732-.803-1.32l5.324-22.066c.143-.585.736-.947 1.324-.805.584.14.948.73.804 1.318l-5.326 22.066c-.12.5-.567.837-1.062.837-.087 0-.172-.01-.26-.03M745.15 36.38l-18.12-10.866c-.516-.312-.686-.985-.373-1.502.31-.516.982-.686 1.5-.378l18.117 10.868c.518.31.688.983.376 1.502-.204.34-.565.53-.94.53-.19 0-.385-.047-.56-.154"/>
      <path d="M765.174 20.85c-.08-.023-.158-.037-.24-.048-.074-.01-.145-.022-.216-.024-.072-.005-.144-.005-.216 0-.08.004-.156.007-.234.018-.07.01-.133.024-.2.04-.076.02-.15.038-.226.066-.067.022-.127.05-.19.08-.076.03-.144.064-.214.107-.06.032-.115.07-.168.11-.07.05-.14.102-.202.158-.023.02-.047.034-.07.055l-16.472 15.912c-.91.882-.935 2.34-.05 3.25.45.467 1.05.7 1.65.7.574 0 1.15-.214 1.597-.644l7.316-7.068c.213-.21.31-.15.207.137l-6.5 18.36-7.98 7.714c-1.138 1.102-1.166 2.918-.064 4.057.562.582 1.31.875 2.06.875.72 0 1.436-.268 1.994-.81-.004 0 8.467-8.19 8.467-8.19.323-.312.564-.688.713-1.113l2.92-8.365c.2-.57.722-.7 1.167-.293l7.394 6.765 2.294 9.693c.313 1.318 1.485 2.21 2.783 2.21.223 0 .444-.027.668-.08 1.54-.364 2.492-1.91 2.13-3.45l-2.5-10.554c-.133-.558-.43-1.065-.854-1.45l-6.937-6.353c-.224-.203-.32-.6-.22-.886l5.112-14.193c.1-.284.416-.443.704-.356l15.032 4.544c.218.065.444.1.663.1.986 0 1.9-.642 2.198-1.635.37-1.217-.32-2.498-1.533-2.864l-21.697-6.56c-.03-.01-.06-.01-.09-.017M763.694 15.26c0 2.747 2.225 4.977 4.978 4.977 2.745 0 4.975-2.23 4.975-4.978 0-2.75-2.23-4.98-4.975-4.98-2.753 0-4.978 2.23-4.978 4.98"/>
      <path d="M786.52 66.527h-54.933c-.838 0-1.518.682-1.518 1.518v.76c0 .837.68 1.516 1.517 1.516h56.503c.42 0 1-.237 1.297-.534l3.67-3.67c.592-.592.592-1.55 0-2.143l-.54-.536c-.593-.592-1.55-.592-2.143 0l-2.557 2.554c-.298.298-.876.537-1.296.537"/>
    </g>
    <g>
      <path d="M860.743 58.865c-.293-.07-.472-.366-.4-.66l2.66-11.033c.072-.293.368-.474.663-.403.292.07.474.364.402.658l-2.663 11.033c-.06.252-.284.42-.532.42-.043 0-.086-.005-.13-.015M843.56 48.577l-9.06-5.433c-.26-.156-.344-.493-.188-.75.155-.26.492-.344.75-.19l9.06 5.434c.258.156.343.492.187.75-.103.17-.284.266-.47.266-.096 0-.193-.024-.28-.077"/>
      <path d="M853.57 40.81c-.04-.01-.08-.017-.12-.022-.037-.006-.072-.012-.108-.013-.036-.002-.072-.002-.108 0-.04.003-.078.004-.117.01-.034.005-.067.01-.1.02-.038.01-.075.018-.113.032-.034.01-.064.026-.096.04-.037.016-.07.032-.106.054-.03.017-.058.036-.084.057-.036.024-.07.05-.1.078-.013.01-.024.017-.036.028l-8.236 7.956c-.456.44-.467 1.17-.026 1.624.226.234.526.35.826.35.287 0 .575-.107.798-.322l3.658-3.534c.107-.105.155-.076.105.068l-3.25 9.18-3.99 3.858c-.57.55-.584 1.46-.033 2.028.282.29.655.437 1.03.437.36 0 .718-.135.997-.405l4.235-4.096c.162-.157.282-.345.356-.557l1.462-4.183c.1-.285.36-.35.583-.146l3.697 3.382 1.147 4.847c.155.66.742 1.104 1.39 1.104.112 0 .223-.013.334-.04.77-.18 1.246-.954 1.065-1.724l-1.25-5.277c-.067-.278-.216-.532-.428-.725l-3.467-3.175c-.113-.1-.16-.3-.11-.443l2.555-7.097c.05-.142.21-.222.353-.178l7.516 2.27c.108.034.22.05.33.05.494 0 .95-.32 1.1-.816.185-.607-.16-1.248-.767-1.43l-10.85-3.28c-.014-.005-.028-.005-.043-.01M852.83 38.016c0 1.374 1.113 2.49 2.49 2.49 1.372 0 2.487-1.116 2.487-2.49 0-1.375-1.115-2.49-2.488-2.49-1.377 0-2.49 1.115-2.49 2.49"/>
      <path d="M864.244 63.65h-27.467c-.42 0-.758.34-.758.76v.378c0 .42.338.76.757.76h28.252c.21 0 .5-.12.647-.27l1.834-1.833c.298-.296.298-.776 0-1.072l-.268-.268c-.296-.296-.776-.296-1.072 0l-1.278 1.277c-.15.15-.438.268-.648.268M843.016 16.986c0 1.397-1.134 2.532-2.533 2.532-1.4 0-2.532-1.135-2.532-2.532 0-1.402 1.134-2.533 2.533-2.533 1.4 0 2.533 1.13 2.533 2.533M838.204 19.506c-.486-.486-1.126-.73-1.765-.73h-10.45c-.642 0-1.162.52-1.162 1.164 0 .64.52 1.16 1.16 1.16h7.1l-4.253 4.252c-.486.488-.728 1.127-.728 1.762 0 .372.087.74.255 1.08.135.274.123.64-.093.857l-6.92 6.92c-.272.27-.405.623-.405.98 0 .352.133.707.405.977.54.54 1.414.54 1.954 0l14.9-14.9c.973-.97.973-2.546 0-3.52"/>
      <path d="M839.243 32.047l-26.51 11.135c-.388.16-.57.61-.407.998l.148.353c.162.387.61.57.997.407l27.24-11.44c.194-.083.415-.305.494-.5l.986-2.414c.16-.39-.026-.835-.417-.994l-.353-.144c-.39-.16-.835.028-.994.417l-.687 1.682c-.08.195-.302.42-.497.5"/>
    </g>
    <g>
      <path d="M945.312 52.484l-6.48-3.744 5.47-3.257c.88-.423 1.152-1.604.652-2.472-.51-.888-1.608-1.076-2.442-.59l-7.292 4.272-11.59-6.744 11.59-6.675 7.292 4.265c.228.166.52.264.847.264.617 0 1.17-.292 1.594-.848.488-.882.228-2.048-.65-2.472l-5.47-3.257 6.478-3.744c.844-.485 1.135-1.575.65-2.47-.46-.863-1.603-1.16-2.473-.654l-6.512 3.778-.098-6.515c-.015-1.008-.78-1.82-1.79-1.82s-1.798.875-1.79 1.82l.064 8.598-11.524 6.674V23.35l7.26-4.14c.847-.48 1.216-1.598.716-2.473-.51-.89-1.553-1.153-2.442-.653l-5.534 3.125v-7.39c0-1.008-.814-1.82-1.823-1.82-1.01 0-1.79.812-1.79 1.82v7.46l-5.73-3.196c-.893-.493-1.91-.215-2.41.653-.51.89-.193 1.98.683 2.472l7.456 4.2v13.412l-11.785-6.8.066-8.403c.098-.945-.75-1.82-1.758-1.82h-.065c-.944 0-1.78.812-1.79 1.82l-.066 6.32-6.348-3.647c-.887-.514-1.98-.208-2.443.646-.483.902-.233 1.965.652 2.478l6.412 3.71-5.6 3.354c-.88.424-1.153 1.604-.618 2.472.344.563.846.848 1.53.848.357 0 .655-.09.944-.264l7.325-4.327 11.753 6.738-11.753 6.806-7.325-4.334c-.88-.514-2.013-.27-2.474.59-.484.897-.22 1.973.618 2.473l5.6 3.32-6.414 3.743c-.882.514-1.168 1.598-.65 2.48.36.61.846.91 1.53.91.162 0 .487-.097.91-.264l6.35-3.646.064 6.32c.01 1.007.847 1.785 1.79 1.785h.066c1.01 0 1.766-.84 1.758-1.854l-.065-8.397 11.786-6.737v13.34l-7.456 4.203c-.89.5-1.2 1.59-.683 2.473.362.617.847.916 1.53.916.326 0 .626-.056.88-.202l5.73-3.25v7.584c0 1.007.78 1.792 1.79 1.792s1.823-.785 1.823-1.792v-7.46l5.534 3.126c.253.146.553.202.846.202.716 0 1.244-.292 1.596-.917.494-.876.175-1.974-.716-2.474l-7.26-4.07V43.073l11.524 6.675-.065 8.528c-.01 1.014.78 1.855 1.79 1.855s1.775-.777 1.79-1.784l.098-6.55 6.51 3.813c.252.145.587.194.945.194.684 0 1.185-.285 1.53-.847.535-.87.193-1.987-.65-2.473"/>
    </g>
    <g>
      <path d="M1024.78 40.927c2.947-2.146 3.602-6.27 1.46-9.22-1.292-1.776-3.306-2.722-5.348-2.718-1.344 0-2.702.407-3.87 1.26l-39.113 28.422c-2.95 2.14-3.606 6.268-1.463 9.217 1.293 1.775 3.306 2.72 5.345 2.72 1.347 0 2.704-.41 3.875-1.26l39.112-28.423zM992.97 45.233l-1.53-2.723c-.15-.268-.026-.538.27-.607 1.33-.316 4.78-1.132 6.11-1.45.294-.07.757-.02 1.03.11l1.273.605 5.168-3.757-5.42-2.57c-.58-.275-1.234-.345-1.853-.198l-3.037.725c-.3.07-.5-.12-.454-.417l1.2-8.02c.044-.3.32-.48.61-.4l6.408 1.773c.2.054.408.083.613.083.42 0 .833-.11 1.197-.333l7.663-4.633c1.09-.66 1.442-2.08.782-3.17-.658-1.09-2.08-1.443-3.17-.783l-6.343 3.83c-.26.16-.708.22-1 .14l-9.705-2.685-9.327-6.103c-.69-.45-1.558-.505-2.297-.13l-7.38 3.687c-1.142.57-1.605 1.957-1.034 3.098.572 1.14 1.956 1.608 3.1 1.035l5.7-2.852c.274-.136.7-.11.954.054l3.075 2.015c.254.166.423.548.38.844l-2.435 16.23c-.08.6.01 1.227.324 1.795 0-.007 2.208 3.93 3.588 6.404.15.266.268.727.263 1.03-.007.65-.02 1.47-.037 2.37l5.612-4.078c-.054-.318-.14-.625-.3-.92"/>
      <path d="M1000.314 14.42c0 2.78-2.256 5.033-5.034 5.033-2.78 0-5.035-2.253-5.035-5.032 0-2.778 2.254-5.03 5.035-5.03 2.778 0 5.034 2.252 5.034 5.03"/>
    </g>
    <g>
      <path d="M1089.223 14.26c2.678.71 4.268 3.452 3.562 6.128-.708 2.672-3.45 4.266-6.126 3.558-2.677-.707-4.27-3.45-3.56-6.125.71-2.675 3.45-4.27 6.123-3.56M1075.85 59.738l5.353-8.516-5.08-6.97c-.86-1.182-.602-2.838.58-3.7 1.18-.86 2.837-.6 3.698.582l6.135 8.42c.64.874.68 2.05.104 2.967l-6.31 10.035c-.777 1.238-2.41 1.61-3.65.832-1.237-.778-1.61-2.41-.83-3.65"/>
      <path d="M1058.59 49.217l11.8-.063 2.104-8.41c.354-1.418 1.79-2.282 3.21-1.926 1.417.355 2.28 1.792 1.926 3.21l-2.603 10.403c-.295 1.175-1.344 2-2.554 2.006l-13.856.075c-1.46.01-2.652-1.17-2.66-2.632-.007-1.46 1.17-2.653 2.632-2.66M1082.156 26.228c.835-1.2 2.484-1.497 3.686-.662l10.102 7.02 6.778-.204c1.46-.044 2.68 1.105 2.725 2.565.044 1.46-1.104 2.682-2.565 2.726l-7.65.232c-.57.018-1.126-.15-1.593-.474l-10.82-7.518c-1.202-.834-1.496-2.483-.664-3.684"/>
      <path d="M1088.722 33.097c1.336-2.794.142-6.17-2.652-7.504l-.313-.15c-2.792-1.334-6.168-.14-7.504 2.652l-5.033 10.542c-1.334 2.794-.142 6.17 2.652 7.504l.313.15c2.792 1.335 6.168.14 7.504-2.653l5.032-10.54zM1054.272 64.48l43.932.042c-.28 0-.553.09-.78.256l3.306-2.41c.59-.433 1.42-.304 1.848.288.432.59.302 1.417-.29 1.848l-3.306 2.412c-.225.166-.5.253-.78.253l-43.933-.042c-.732 0-1.324-.594-1.322-1.326 0-.73.592-1.32 1.324-1.32M1102.733 40.695l-6.258 20.27c-.215.7-.957 1.09-1.655.875-.698-.215-1.088-.957-.873-1.655l6.258-20.27c.214-.7.956-1.09 1.654-.876.697.216 1.09.956.873 1.655M1082.712 14.708l-10.893 23.68c-.306.664-1.092.954-1.756.65-.665-.306-.957-1.092-.65-1.756l10.894-23.68c.305-.665 1.09-.956 1.755-.65.664.306.957 1.092.65 1.756"/>
      <path d="M1074.577 27.901l-4.283 9.807c-.292.67-1.073.976-1.743.683-.668-.292-.976-1.073-.68-1.743l4.282-9.806c.292-.668 1.073-.975 1.743-.683.67.294.974 1.073.682 1.744"/>
    </g>
    <g>
      <path d="M1151.973 13.318c-.908 1.43-1.21 3.126-.84 4.78.366 1.652 1.355 3.065 2.786 3.975 1.427.908 3.125 1.207 4.78.838 1.653-.366 3.063-1.356 3.972-2.784.908-1.43 1.21-3.13.838-4.782-.367-1.653-1.355-3.063-2.787-3.97-1.426-.91-3.124-1.21-4.778-.842-1.653.368-3.064 1.358-3.972 2.786m7.33.292c.833.528 1.408 1.35 1.622 2.31.215.963.038 1.95-.49 2.783-.527.832-1.35 1.408-2.31 1.622-.963.214-1.952.04-2.782-.49-.834-.528-1.41-1.35-1.624-2.312-.215-.96-.042-1.95.488-2.78.53-.834 1.352-1.41 2.312-1.623.963-.215 1.952-.04 2.782.49M1154.677 29.863c-.62 2.7-3.313 4.386-6.012 3.765-2.7-.62-4.384-3.31-3.765-6.01.62-2.7 3.312-4.386 6.01-3.767 2.7.62 4.388 3.312 3.767 6.013M1157.8 36.097c-2.275-2.1-5.858-1.954-7.96.324l-.232.256c-2.102 2.278-1.956 5.86.32 7.96l8.604 7.93c2.277 2.1 5.86 1.955 7.96-.322l.236-.256c2.1-2.278 1.955-5.86-.323-7.962l-8.604-7.93z"/>
      <path d="M1187.896 53.082l-11.72-2.467-9.006-5.75c-1.23-.79-2.872-.427-3.66.806-.788 1.234-.425 2.872.81 3.662l9.41 6.012c.27.17.566.294.88.36l12.194 2.566c1.434.3 2.84-.616 3.14-2.048.3-1.433-.617-2.84-2.048-3.14M1175.828 57.776l-8.82 2.05-2.56-8.497c-.423-1.4-1.9-2.195-3.3-1.772-1.402.42-2.197 1.9-1.776 3.3l3.277 10.878c.403 1.337 1.777 2.132 3.138 1.817l11.24-2.615c1.426-.33 2.312-1.754 1.98-3.18-.33-1.427-1.754-2.314-3.18-1.982M1163.826 35.36c.694-.32 1.217-.92 1.437-1.65l3.136-10.456c.42-1.402-.376-2.878-1.778-3.3-1.402-.42-2.877.375-3.3 1.777l-2.792 9.307-14.33 6.56c-.182.082-.345.184-.495.298l-13.065.05c-1.466.006-2.645 1.197-2.64 2.66.005 1.465 1.196 2.647 2.66 2.64l17.025-.065c1.426-.005 2.58-1.14 2.63-2.553l11.51-5.268z"/>
    </g>
    <g>
      <path d="M1213.497 27.97c-.913 1.435-1.212 3.14-.844 4.798.37 1.66 1.36 3.076 2.8 3.99 2.957 1.882 6.897 1.006 8.78-1.954 1.885-2.962 1.006-6.903-1.954-8.785-1.434-.912-3.136-1.213-4.796-.844-1.66.37-3.075 1.36-3.987 2.795m7.358.294c1.72 1.096 2.234 3.388 1.135 5.113-1.096 1.722-3.39 2.232-5.113 1.137-1.724-1.098-2.233-3.392-1.136-5.115.533-.836 1.354-1.414 2.322-1.628.965-.214 1.955-.04 2.793.492M1239.5 23.495c-.623 2.708-3.325 4.4-6.034 3.78-2.708-.624-4.4-3.325-3.78-6.035.624-2.71 3.326-4.4 6.034-3.78 2.71.624 4.404 3.325 3.78 6.035M1264.83 53.678l-12.566.05-.054-10.778c-.01-1.467-1.205-2.653-2.674-2.644-1.47.007-2.653 1.203-2.648 2.67l.07 13.435c.008 1.47 1.202 2.652 2.67 2.647l15.222-.06c1.47-.005 2.66-1.2 2.65-2.67-.006-1.466-1.2-2.654-2.67-2.65"/>
      <path d="M1228.868 62.148l9.722-7.174 7.8-5.623c1.19-.858 1.46-2.52.6-3.713-.858-1.19-2.52-1.46-3.712-.6l-7.824 5.642c-.025.014-9.747 7.187-9.747 7.187-1.18.873-1.43 2.538-.56 3.72.875 1.182 2.538 1.433 3.72.56"/>
      <path d="M1245.82 30.238c-1.464-2.744-4.906-3.79-7.65-2.324l-.307.164c-2.742 1.465-3.79 4.907-2.324 7.65l5.528 10.356c1.467 2.745 4.91 3.79 7.654 2.324l.307-.164c2.74-1.463 3.788-4.906 2.323-7.65l-5.532-10.356z"/>
      <path d="M1237.785 28.115l-17.82 12.5c-1.202.843-1.493 2.5-.65 3.703.84 1.202 2.5 1.493 3.705.65l17.82-12.497c1.202-.843 1.495-2.502.652-3.704-.845-1.203-2.503-1.493-3.707-.65"/>
    </g>
    <g>
      <path d="M1327.528 18.052c2.353 1.498 3.048 4.617 1.55 6.97-1.494 2.353-4.614 3.045-6.966 1.55-2.355-1.497-3.05-4.616-1.55-6.97 1.498-2.353 4.616-3.046 6.967-1.55M1332.732 41.658c-1.887 2.968-1.007 6.92 1.96 8.81 1.44.915 3.148 1.216 4.812.846 1.662-.37 3.08-1.366 3.997-2.806.916-1.437 1.216-3.147.845-4.81-.367-1.665-1.366-3.085-2.803-3.998-1.438-.915-3.145-1.216-4.81-.846-1.664.37-3.083 1.365-4 2.804m7.38.293c.835.533 1.417 1.36 1.63 2.327.216.968.04 1.963-.492 2.8-.533.838-1.357 1.417-2.325 1.633-.97.216-1.966.04-2.802-.492-1.73-1.1-2.24-3.4-1.142-5.127.537-.838 1.362-1.417 2.33-1.633.968-.215 1.963-.038 2.802.494M1321.195 49.267l-10.58-9.503c-1.097-.984-2.784-.893-3.768.204-.986 1.095-.894 2.78.204 3.766l8.3 7.455-8.117 6.84c-1.124.95-1.267 2.63-.32 3.76.952 1.124 2.635 1.268 3.76.32l10.46-8.818c.59-.498.934-1.227.945-1.998.014-.77-.31-1.51-.883-2.027"/>
      <path d="M1311.145 50.163l-2.248-10.607c-.305-1.442-1.722-2.362-3.162-2.057-1.442.305-2.362 1.72-2.06 3.162l1.93 9.092-9.21 8.178c-1.1.98-1.2 2.665-.222 3.766.978 1.102 2.663 1.2 3.767.222l10.366-9.21c.717-.636 1.036-1.608.84-2.547M1337.62 32.437l-8.105.037-9.814-6.026c-1.253-.772-2.894-.38-3.666.876-.77 1.256-.38 2.9.874 3.67l10.462 6.423c.425.262.912.398 1.41.396l8.86-.04c1.473-.008 2.665-1.207 2.656-2.68-.005-1.473-1.206-2.662-2.677-2.656"/>
      <path d="M1328.907 46.532l-5.29-4.634-2.966-13.284c-.323-1.438-1.747-2.342-3.184-2.02-1.44.32-2.343 1.746-2.022 3.183l3.16 14.135c.12.553.42 1.05.843 1.424l5.943 5.208c1.11.972 2.796.86 3.764-.247.973-1.11.86-2.794-.247-3.765"/>
      <path d="M1321.806 35.726c2.133-2.275 2.02-5.882-.257-8.015l-.255-.24c-2.275-2.133-5.883-2.016-8.016.26l-8.055 8.587c-2.132 2.275-2.016 5.882.258 8.015l.255.24c2.276 2.133 5.88 2.017 8.014-.258l8.054-8.588z"/>
    </g>
    <g>
      <path d="M1400.475 23.425c.623 2.706 3.32 4.396 6.025 3.774 2.706-.623 4.395-3.32 3.774-6.027-.62-2.704-3.318-4.395-6.025-3.773-2.706.622-4.398 3.32-3.775 6.025M1385.155 36.45c-1.466-.076-2.713 1.05-2.788 2.516l-.654 12.697-9.205 5.7c-1.246.772-1.632 2.41-.86 3.658.775 1.247 2.412 1.632 3.658.86l10.388-6.436c.74-.458 1.21-1.25 1.254-2.12l.723-14.086c.076-1.465-1.05-2.712-2.516-2.79"/>
      <path d="M1399.517 49.76c-.022-.762-.37-1.475-.953-1.962l-8.127-6.79c-1.126-.942-2.8-.792-3.742.333-.94 1.126-.79 2.803.334 3.743l7.21 6.024.26 9.042c.042 1.466 1.263 2.62 2.73 2.578 1.468-.042 2.623-1.266 2.58-2.73l-.293-10.238z"/>
      <path d="M1392.85 26.71c2.284-2.104 5.875-1.958 7.98.325l.237.255c2.103 2.283 1.96 5.875-.325 7.98l-8.62 7.946c-2.284 2.106-5.874 1.96-7.98-.324l-.234-.254c-2.107-2.284-1.96-5.874.322-7.978l8.62-7.95z"/>
      <path d="M1414.583 42.174l-12.58-1.684-.108-10.06c-.015-1.468-1.217-2.645-2.683-2.63-1.465.016-2.643 1.217-2.628 2.685l.13 12.36c.014 1.32.996 2.43 2.303 2.606l14.862 1.99c1.452.195 2.787-.828 2.982-2.282.196-1.454-.826-2.79-2.28-2.984"/>
      <path d="M1396.46 30.25l16.057 15.146c1.066 1.01 2.746.96 3.754-.108 1.007-1.068.96-2.748-.108-3.755l-16.056-15.148c-1.066-1.008-2.748-.958-3.756.108-1.008 1.068-.957 2.748.11 3.756M1417.408 47.883l2.924 7.604c.892 2.552 3.47 6.694 7.387 5.79.712-.165 1.16-.877.996-1.592-.166-.716-.88-1.16-1.594-.995-2.552.59-4.283-4.072-4.296-4.12-.017-.035-2.94-7.64-2.94-7.64-.264-.684-1.032-1.025-1.717-.764-.685.265-1.027 1.034-.763 1.718"/>
    </g>
    <g>
      <path d="M1498.177 27.644c-1.972 1.97-5.166 1.97-7.138 0-1.972-1.972-1.972-5.167 0-7.138 1.97-1.97 5.165-1.97 7.137 0 1.97 1.97 1.97 5.166 0 7.138M1485.514 48.38l-6.266-6.027c-1.063-1.02-2.75-.99-3.77.072s-.99 2.75.072 3.77l3.914 3.765-8.94 6.15c-1.214.834-1.522 2.493-.687 3.707.836 1.214 2.495 1.52 3.708.685l11.633-8c.66-.457 1.08-1.183 1.145-1.982.067-.798-.23-1.583-.81-2.14"/>
      <path d="M1473.111 37.092c-1.465-.13-2.763.952-2.892 2.42l-.727 8.118-12.334 8.475c-1.212.834-1.52 2.494-.686 3.708.836 1.214 2.493 1.522 3.708.688l13.368-9.184c.654-.45 1.073-1.168 1.145-1.96l.84-9.37c.13-1.466-.952-2.762-2.418-2.894M1483.875 23.07l-6.614-1.867c-.93-.262-1.928-.002-2.61.68l-5.005 5.006c-1.043 1.04-1.043 2.73 0 3.77 1.04 1.04 2.73 1.04 3.77 0l3.9-3.9 5.11 1.443h.003c1.416.4 2.89-.425 3.29-1.843.4-1.417-.424-2.89-1.843-3.29M1501.236 40.305l-4.665.17-.133-4.36c-.046-1.474-1.275-2.63-2.748-2.584-1.47.046-2.63 1.276-2.583 2.748l.217 7.04c.02.71.326 1.38.843 1.866.518.484 1.208.742 1.92.716l7.34-.265c1.476-.053 2.622-1.29 2.57-2.76-.054-1.474-1.286-2.623-2.76-2.57"/>
      <path d="M1493.358 32.058l-8.265-8.265-14.12 14.185 6.346 9.968 16.038-15.888z"/>
      <path d="M1481.162 27.569l4.344 4.133 6.38 6.378c1.043 1.044 2.73 1.044 3.77.002 1.044-1.043 1.044-2.73 0-3.772l-6.426-6.426c-.046-.046-4.392-4.18-4.392-4.18-1.068-1.016-2.754-.973-3.77.094-1.015 1.067-.974 2.754.094 3.77"/>
    </g>
    <g>
      <path d="M1567.924 18.686c-.108-.427-.542-.685-.97-.577-.425.107-.684.54-.575.968l5.207 20.55c.09.36.416.6.772.6.064 0 .13-.007.195-.024.427-.108.685-.542.577-.97l-5.208-20.548zM1580.916 24.27l-.713-2.632c.933-.348 1.815-.548 2.813-.58l.713 2.63c-1 .034-1.88.234-2.814.582m-3.5-1.177l-.8-2.947c.905-.528 1.81-1.033 2.772-1.45l.798 2.95c-.962.414-1.866.92-2.77 1.447m-2.053 4.102l-.713-2.632c.95-.425 1.847-.933 2.746-1.458l.713 2.632c-.9.525-1.796 1.033-2.747 1.458m-3.685-1.985l-.798-2.948c1.055-.03 1.992-.26 2.97-.646-.233-.865-.467-1.73-.702-2.594.958-.428 1.86-.94 2.766-1.47l.703 2.594c-.905.53-1.808 1.042-2.766 1.47l.8 2.947c-.98.387-1.916.616-2.972.647m9.836-9.694c.234.864.47 1.73.703 2.594-1.004.033-1.89.235-2.83.587l-.702-2.594c.94-.352 1.825-.554 2.83-.587m3.745 8.958l-2.547-9.402c-.092-.34-.254-.703-.86-.74-4.773-.345-7.907 4.408-12.68 4.063-.377-.047-.62.15-.528.49.85 3.133 1.692 6.268 2.548 9.4.137.503.483.694.86.74 4.773.346 7.907-4.408 12.68-4.062.377.046.62-.15.527-.49M1578.67 46.263c0 1.167-.946 2.113-2.113 2.113s-2.113-.946-2.113-2.113.946-2.113 2.113-2.113 2.113.946 2.113 2.113M1569.636 53.766c-.475-.393-1.178-.328-1.572.147-.392.475-.327 1.178.148 1.572l3.298 2.735v3.557c0 .617.5 1.116 1.116 1.116.618 0 1.117-.5 1.117-1.116v-4.082c0-.332-.147-.647-.404-.86l-3.704-3.07zM1579.903 51.944h-3.24l-1.447-2.687c-.293-.543-.97-.746-1.513-.453-.543.292-.745.97-.452 1.512l1.763 3.274c.195.36.57.587.983.587h3.907c.617 0 1.116-.5 1.116-1.117 0-.616-.5-1.116-1.117-1.116"/>
      <path d="M1574.615 51.638c.923-.923.923-2.433.002-3.357l-.105-.102c-.923-.923-2.433-.923-3.356 0l-3.484 3.484c-.923.923-.923 2.434 0 3.357l.103.103c.924.922 2.432.922 3.355 0l3.485-3.485zM1560.686 60.828c0 2.807 2.283 5.09 5.09 5.09 2.806 0 5.09-2.283 5.09-5.09s-2.284-5.09-5.09-5.09c-2.807 0-5.09 2.283-5.09 5.09m5.09-3.974c2.19 0 3.973 1.783 3.973 3.974 0 2.19-1.783 3.974-3.974 3.974-2.19 0-3.973-1.783-3.973-3.974 0-2.19 1.782-3.974 3.973-3.974M1574.427 60.828c0 2.807 2.283 5.09 5.09 5.09s5.09-2.283 5.09-5.09-2.283-5.09-5.09-5.09-5.09 2.283-5.09 5.09m5.09-3.974c2.19 0 3.974 1.783 3.974 3.974 0 2.19-1.782 3.974-3.973 3.974-2.19 0-3.973-1.783-3.973-3.974 0-2.19 1.782-3.974 3.973-3.974M1554.9 21.204c-.884.883-2.316.884-3.2 0-.883-.884-.883-2.316 0-3.2.884-.884 2.316-.884 3.2 0 .883.884.883 2.316 0 3.2M1549.224 30.5l-2.81-2.703c-.476-.457-1.232-.443-1.69.033-.457.476-.442 1.233.033 1.69l1.755 1.688-4.01 2.756c-.542.375-.68 1.12-.306 1.663.375.544 1.12.68 1.662.307l5.215-3.587c.296-.204.485-.53.514-.888.03-.36-.104-.71-.363-.96"/>
      <path d="M1543.664 25.44c-.658-.06-1.24.426-1.297 1.083l-.326 3.64-5.53 3.8c-.542.373-.68 1.118-.307 1.662.375.544 1.118.682 1.663.308l5.993-4.118c.292-.2.48-.523.512-.878l.376-4.2c.058-.658-.427-1.24-1.084-1.298M1548.49 19.153l-2.966-.837c-.418-.117-.865 0-1.17.305l-2.244 2.245c-.468.467-.468 1.224 0 1.69.466.467 1.223.467 1.69 0l1.748-1.748 2.29.647h.002c.635.18 1.296-.19 1.475-.826.18-.635-.19-1.296-.826-1.475M1556.272 26.88l-2.09.076-.06-1.955c-.022-.66-.573-1.177-1.233-1.157-.66.02-1.18.572-1.16 1.232l.098 3.155c.01.32.147.62.378.836.233.217.542.333.86.32l3.292-.118c.66-.023 1.175-.578 1.152-1.237-.024-.66-.577-1.175-1.238-1.15"/>
      <path d="M1552.74 23.183l-3.705-3.705-6.33 6.36 2.845 4.468 7.19-7.123z"/>
      <path d="M1547.273 21.17l1.947 1.853 2.86 2.86c.468.467 1.224.467 1.69 0 .47-.467.47-1.224 0-1.69l-2.88-2.88c-.02-.022-1.97-1.876-1.97-1.876-.478-.455-1.234-.435-1.69.043-.454.478-.436 1.235.043 1.69M1555.053 59.612l-2.375-1.373 2.005-1.195c.322-.155.422-.588.24-.907-.188-.326-.59-.394-.897-.216l-2.673 1.566-4.25-2.473 4.25-2.447 2.673 1.564c.084.06.19.096.31.096.227 0 .43-.106.586-.31.18-.324.083-.75-.24-.907l-2.005-1.193 2.376-1.373c.31-.178.416-.578.24-.906-.17-.316-.59-.426-.91-.24l-2.386 1.386-.036-2.39c-.004-.368-.285-.666-.655-.666-.37 0-.66.32-.657.667l.024 3.153-4.226 2.447V48.93l2.662-1.52c.31-.174.447-.584.263-.905-.185-.326-.568-.423-.894-.24l-2.03 1.146v-2.708c0-.37-.298-.668-.668-.668-.37 0-.657.298-.657.668v2.735l-2.1-1.172c-.327-.18-.7-.08-.883.24-.186.326-.07.725.25.906l2.734 1.542v4.917l-4.32-2.494.024-3.08c.036-.347-.274-.668-.644-.668h-.024c-.346 0-.653.298-.657.667l-.025 2.317-2.327-1.337c-.325-.188-.726-.076-.896.237-.177.33-.085.72.24.91l2.35 1.36-2.053 1.23c-.323.155-.423.587-.227.906.126.206.31.31.56.31.132 0 .24-.033.347-.096l2.686-1.587 4.31 2.47-4.31 2.496-2.686-1.588c-.323-.188-.738-.1-.907.216-.178.33-.08.724.226.907l2.053 1.217-2.352 1.373c-.323.188-.428.586-.238.91.133.223.31.333.56.333.06 0 .18-.036.336-.097l2.327-1.336.024 2.317c.003.37.31.656.656.656h.024c.37 0 .647-.308.644-.68l-.024-3.08 4.32-2.47v4.893l-2.732 1.54c-.327.183-.44.583-.25.906.132.227.31.336.56.336.12 0 .23-.02.323-.074l2.1-1.19v2.78c0 .37.288.656.658.656.37 0 .668-.287.668-.657v-2.735l2.03 1.146c.093.054.203.074.31.074.263 0 .456-.107.585-.336.182-.32.065-.723-.262-.906l-2.662-1.493V56.16l4.226 2.45-.024 3.126c-.003.372.287.68.657.68.37 0 .65-.285.656-.655l.037-2.4 2.387 1.398c.093.053.215.07.347.07.25 0 .435-.103.562-.31.196-.318.07-.728-.24-.906"/>
    </g>
  </g>
</svg>
